<svg xmlns="http://www.w3.org/2000/svg" xmlns:xlink="http://www.w3.org/1999/xlink" width="750" height="760.621" viewBox="0 0 750 760.621">
  <defs>
    <linearGradient id="linear-gradient" x1="0.5" y1="0.04" x2="0.262" y2="0.845" gradientUnits="objectBoundingBox">
      <stop offset="0" stop-color="#ef8874"/>
      <stop offset="0.318" stop-color="#c26080"/>
      <stop offset="0.676" stop-color="#e068a4"/>
      <stop offset="1" stop-color="#745ac5"/>
    </linearGradient>
    <linearGradient id="linear-gradient-2" x1="0.231" y1="0.931" x2="0.719" y2="0.082" gradientUnits="objectBoundingBox">
      <stop offset="0" stop-color="#745ac5"/>
      <stop offset="0.328" stop-color="#c26080"/>
      <stop offset="0.679" stop-color="#e068a4"/>
      <stop offset="1" stop-color="#ef8874"/>
    </linearGradient>
  </defs>
  <g id="Group_8" data-name="Group 8" transform="translate(994 10.621)">
    <rect id="Rectangle_4" data-name="Rectangle 4" width="750" height="750" rx="92" transform="translate(-994)" fill="#fff"/>
    <path id="Path_2" data-name="Path 2" d="M535.158,529.117H416.679L298.2,646.7,179.719,529.117H61.24C28.658,529.117,2,502.661,2,470.327V58.791C2,26.456,28.658,0,61.24,0H535.158C567.74,0,594.4,26.456,594.4,58.791V470.327C594.4,502.661,567.74,529.117,535.158,529.117Zm0-470.326H61.24V470.327H195.122L299.384,573.21,402.461,470.327h132.7Zm-59.24,352.745H120.48V117.582H475.918" transform="translate(-916.699 79.301)" fill="url(#linear-gradient)"/>
    <path id="Path_7" data-name="Path 7" d="M0,0H374V318H0Z" transform="translate(-806 178)" fill="#fff"/>
    <g id="place-24px" transform="translate(-909.621 -10.621)">
      <path id="Path_3" data-name="Path 3" d="M0,0H582.952V582.952H0Z" fill="none"/>
      <path id="Path_4" data-name="Path 4" d="M175.028,2A169.9,169.9,0,0,0,5,172.028C5,299.548,175.028,487.793,175.028,487.793S345.055,299.548,345.055,172.028A169.9,169.9,0,0,0,175.028,2Zm0,230.752a60.724,60.724,0,1,1,60.724-60.724A60.746,60.746,0,0,1,175.028,232.752Z" transform="translate(116.448 46.579)" fill="url(#linear-gradient-2)"/>
    </g>
  </g>
</svg>
