<?xml version="1.0" encoding="UTF-8" standalone="no"?>
<svg
   xmlns:dc="http://purl.org/dc/elements/1.1/"
   xmlns:cc="http://creativecommons.org/ns#"
   xmlns:rdf="http://www.w3.org/1999/02/22-rdf-syntax-ns#"
   xmlns:svg="http://www.w3.org/2000/svg"
   xmlns="http://www.w3.org/2000/svg"
   xmlns:sodipodi="http://sodipodi.sourceforge.net/DTD/sodipodi-0.dtd"
   xmlns:inkscape="http://www.inkscape.org/namespaces/inkscape"
   width="181.9966mm"
   height="197.85548mm"
   viewBox="0 0 181.9966 197.85548"
   version="1.1"
   id="svg8"
   inkscape:version="1.0.1 (3bc2e813f5, 2020-09-07)"
   sodipodi:docname="myMomentWhite.svg">
  <defs
     id="defs2" />
  <sodipodi:namedview
     id="base"
     pagecolor="#ffffff"
     bordercolor="#666666"
     borderopacity="1.0"
     inkscape:pageopacity="0.0"
     inkscape:pageshadow="2"
     inkscape:zoom="0.98994949"
     inkscape:cx="317.68242"
     inkscape:cy="374.42269"
     inkscape:document-units="mm"
     inkscape:current-layer="g21"
     inkscape:document-rotation="0"
     showgrid="false"
     fit-margin-top="0"
     fit-margin-left="0"
     fit-margin-right="0"
     fit-margin-bottom="0"
     inkscape:pagecheckerboard="true"
     inkscape:window-width="1431"
     inkscape:window-height="1030"
     inkscape:window-x="224"
     inkscape:window-y="0"
     inkscape:window-maximized="0" />
  <metadata
     id="metadata5">
    <rdf:RDF>
      <cc:Work
         rdf:about="">
        <dc:format>image/svg+xml</dc:format>
        <dc:type
           rdf:resource="http://purl.org/dc/dcmitype/StillImage" />
        <dc:title></dc:title>
      </cc:Work>
    </rdf:RDF>
  </metadata>
  <g
     inkscape:label="Layer 1"
     inkscape:groupmode="layer"
     id="layer1"
     transform="translate(-7.0157553,-21.394967)">
    <g
       id="g21"
       transform="matrix(0.26458333,0,0,0.26458333,16.606687,46.844781)">
      <path
         id="Path_1"
         data-name="Path 1"
         d="M 0,651.612 H 651.612 V 0 H 0 Z"
         fill="none" />
      <path
         id="Path_2"
         data-name="Path 2"
         d="m 524.8859,543.01 h -108.6 l -108.6,108.6 -108.6,-108.6 H 90.476905 c -29.952751,-0.0884 -54.212133,-24.34825 -54.3,-54.301 V 108.601 c 0.08842,-29.952362 24.347638,-54.211584 54.3,-54.3 H 524.8859 c 29.95236,0.08842 54.21158,24.347638 54.3,54.3 v 380.108 c -0.0879,29.95275 -24.34725,54.21258 -54.3,54.301 z m 0,-434.408 H 90.476905 V 488.709 H 213.1969 l 95.57,95.027 94.484,-95.027 h 121.635 z"
         fill="#ffffff"
         sodipodi:nodetypes="cccccccccccccccccccc" />
      <g
         id="g52"
         transform="translate(-36.249191,-96.188276)">
        <path
           id="Path_3"
           data-name="Path 3"
           d="M 0,0 H 553.331 V 553.331 H 0 Z"
           fill="none" />
        <path
           id="Path_4"
           data-name="Path 4"
           d="m 343.9301,110.34566 a 161.27,161.27 0 0 0 -161.388,161.388 c 0,121.042 161.388,299.721 161.388,299.721 0,0 161.389,-178.679 161.389,-299.721 a 161.27,161.27 0 0 0 -161.389,-161.388 z m 0,219.027 a 57.639,57.639 0 1 1 57.639,-57.639 57.66,57.66 0 0 1 -57.639,57.639 z"
           fill="#ffffff" />
      </g>
    </g>
  </g>
</svg>
